<?xml version="1.0"?>
<svg xmlns="http://www.w3.org/2000/svg" xmlns:xlink="http://www.w3.org/1999/xlink" xmlns:svgjs="http://svgjs.com/svgjs" version="1.1" width="512" height="512" x="0" y="0" viewBox="0 0 384 384" style="enable-background:new 0 0 512 512" xml:space="preserve" class=""><g><path xmlns="http://www.w3.org/2000/svg" d="m320 0h-256c-35.289062 0-64 28.710938-64 64v192c0 35.289062 28.710938 64 64 64h216.816406l47.910156 53.910156c.210938.234375.425782.464844.648438.683594 6.136719 6.132812 14.28125 9.390625 22.59375 9.390625 4.128906 0 8.296875-.808594 12.277344-2.457031 12-4.96875 19.753906-16.566406 19.753906-29.558594v-287.96875c0-35.289062-28.710938-64-64-64zm32 351.929688-52.039062-58.554688c-.105469-.117188-.234376-.199219-.34375-.3125-.394532-.414062-.816407-.773438-1.25-1.152344-.375-.316406-.734376-.652344-1.136719-.933594-.429688-.304687-.886719-.550781-1.351563-.816406-.445312-.257812-.878906-.519531-1.335937-.726562-.464844-.210938-.957031-.363282-1.445313-.523438-.496094-.167968-.984375-.351562-1.496094-.460937-.472656-.113281-.960937-.160157-1.441406-.226563-.566406-.078125-1.128906-.152344-1.703125-.167968-.160156-.015626-.304687-.054688-.457031-.054688h-224c-17.648438 0-32-14.351562-32-32v-192c0-17.648438 14.351562-32 32-32h256c17.648438 0 32 14.351562 32 32zm0 0" fill="#e24f56" data-original="#000000" style="" class=""/><path xmlns="http://www.w3.org/2000/svg" d="m192 224c-8.832031 0-16 7.167969-16 16v8c0 8.832031 7.167969 16 16 16s16-7.167969 16-16v-8c0-8.832031-7.167969-16-16-16zm0 0" fill="#e24f56" data-original="#000000" style="" class=""/><path xmlns="http://www.w3.org/2000/svg" d="m192 56c-8.6875 0-16.910156 3.785156-22.566406 10.375-5.65625 6.59375-8.136719 15.296875-6.839844 23.671875l13.566406 96.183594c1.113282 7.898437 7.863282 13.769531 15.839844 13.769531s14.726562-5.871094 15.839844-13.769531l13.535156-95.984375c1.328125-8.582032-1.160156-17.285156-6.816406-23.871094-5.648438-6.589844-13.871094-10.375-22.558594-10.375zm0 0" fill="#e24f56" data-original="#000000" style="" class=""/></g></svg>
