<?xml version="1.0"?>
<svg xmlns="http://www.w3.org/2000/svg" xmlns:xlink="http://www.w3.org/1999/xlink" xmlns:svgjs="http://svgjs.com/svgjs" version="1.1" width="512" height="512" x="0" y="0" viewBox="0 0 512 512" style="enable-background:new 0 0 512 512" xml:space="preserve" class=""><g><path xmlns="http://www.w3.org/2000/svg" d="m224 336-48-32h-24l-48 48v96l72 40 8-16-48-40v-56l32-32 56 32z" fill="#e14950" data-original="#ffc431" style=""/><path xmlns="http://www.w3.org/2000/svg" d="m288 336 48-32h24l48 48v96l-72 40-8-16 48-40v-56l-32-32-56 32z" fill="#e14950" data-original="#ffc431" style=""/><path xmlns="http://www.w3.org/2000/svg" d="m343.99609 328a7.96736 7.96736 0 0 1 -5.20214-1.92578l-82.79395-70.96631-82.79395 70.96631a7.99994 7.99994 0 1 1 -10.4121-12.14844l88-75.42871a8.00054 8.00054 0 0 1 10.4121 0l88 75.42871a7.99981 7.99981 0 0 1 -5.20996 14.07422z" fill="#dc878a" data-original="#ffd873" style="" class=""/><path xmlns="http://www.w3.org/2000/svg" d="m224 240h64v32h-64z" fill="#d80f18" data-original="#ffb401" style="" class=""/><path xmlns="http://www.w3.org/2000/svg" d="m224 336h64v40h-64z" fill="#d80f18" data-original="#ffb401" style="" class=""/><path xmlns="http://www.w3.org/2000/svg" d="m208 128h96v112h-96z" fill="#e14950" data-original="#ffc431" style=""/><path xmlns="http://www.w3.org/2000/svg" d="m240 272h32v64h-32z" fill="#e14950" data-original="#ffa100" style="" class=""/><path xmlns="http://www.w3.org/2000/svg" d="m208 128 16-40h64l16 40z" fill="#d80f18" data-original="#ffb401" style="" class=""/><path xmlns="http://www.w3.org/2000/svg" d="m240 24h32v64h-32z" fill="#e14950" data-original="#ffa100" style="" class=""/><path xmlns="http://www.w3.org/2000/svg" d="m208 176h96v16h-96z" fill="#d80f18" data-original="#ffb401" style="" class=""/><circle xmlns="http://www.w3.org/2000/svg" cx="280" cy="216" fill="#dc878a" r="8" data-original="#ffd873" style="" class=""/></g></svg>
