<?xml version="1.0" standalone="no"?>
<!DOCTYPE svg PUBLIC "-//W3C//DTD SVG 20010904//EN"
 "http://www.w3.org/TR/2001/REC-SVG-20010904/DTD/svg10.dtd">
<svg version="1.0" xmlns="http://www.w3.org/2000/svg"
 width="1080.000000pt" height="858.000000pt" viewBox="0 0 1080.000000 858.000000"
 preserveAspectRatio="xMidYMid meet">

<g transform="translate(0.000000,858.000000) scale(0.100000,-0.100000)"
fill="#000000" stroke="none">
<path d="M6300 7322 c-13 -2 -42 -17 -62 -34 -35 -27 -38 -28 -38 -10 0 16 -5
19 -21 15 -17 -5 -20 -11 -15 -34 5 -29 5 -29 -43 -29 -52 0 -111 -26 -111
-48 0 -9 13 -11 50 -6 38 5 61 2 90 -11 35 -16 38 -19 23 -30 -12 -9 -14 -20
-9 -51 6 -32 25 -56 101 -131 52 -51 100 -93 107 -93 35 0 40 -46 12 -92 -5
-7 -9 -17 -11 -23 -1 -5 -5 -19 -8 -31 -5 -16 2 -27 27 -48 50 -41 166 -113
193 -120 13 -3 44 -20 69 -36 24 -17 50 -30 58 -30 23 0 84 90 107 158 23 68
26 89 18 140 -4 21 -1 32 6 33 7 0 2 4 -10 9 -16 6 -24 22 -32 62 -23 116 -23
124 -7 140 12 13 13 17 2 21 -7 3 -16 19 -19 36 -4 20 -27 52 -64 87 -101 97
-112 104 -180 104 -44 1 -47 2 -29 15 11 8 18 15 15 16 -30 5 -42 8 -47 13 -3
4 -15 -3 -27 -14 l-22 -21 -39 23 c-42 25 -47 26 -84 20z m70 -75 c0 -4 -7
-10 -16 -14 -9 -3 -28 -17 -42 -29 -29 -28 -41 -29 -68 -9 -18 15 -18 16 10
38 16 12 36 29 44 38 13 15 17 15 43 0 16 -9 29 -20 29 -24z m178 -2 c3 -2 -1
-11 -7 -19 -7 -8 -27 -48 -45 -89 l-32 -74 -58 43 c-32 24 -62 44 -67 44 -21
0 -6 17 44 50 75 50 98 60 131 54 16 -2 32 -6 34 -9z m-224 -160 c31 -14 56
-29 56 -35 0 -5 11 -12 25 -16 18 -4 25 -13 25 -30 0 -13 -2 -24 -4 -24 -3 0
-24 17 -48 38 -24 20 -61 44 -83 53 -100 41 -94 38 -59 38 17 1 57 -10 88 -24z
m416 -85 c0 -5 -7 -10 -15 -10 -8 0 -15 5 -15 10 0 6 7 10 15 10 8 0 15 -4 15
-10z m40 -240 c12 -8 11 -10 -7 -10 -13 0 -23 5 -23 10 0 13 11 13 30 0z"/>
<path d="M6121 7266 c-10 -12 -8 -13 8 -9 12 3 21 9 21 14 0 14 -16 11 -29 -5z"/>
<path d="M5868 6958 c-2 -15 10 -40 35 -73 34 -43 36 -50 20 -56 -16 -5 -15
-7 5 -18 29 -15 21 -28 -27 -42 l-38 -11 8 -47 c5 -25 16 -64 24 -86 14 -38
14 -43 -5 -80 -23 -45 -19 -97 12 -157 10 -21 16 -38 14 -38 -6 0 -226 -67
-248 -75 -13 -5 -18 -2 -18 9 0 8 -9 20 -21 26 -11 6 -55 39 -97 73 -42 35
-108 82 -145 107 -68 43 -68 44 -62 79 7 36 19 67 46 109 13 21 12 25 -6 38
-18 13 -21 12 -37 -8 -10 -13 -28 -42 -40 -65 -16 -30 -30 -43 -44 -43 -11 0
-55 24 -97 54 l-77 53 32 41 c18 22 48 49 66 59 40 22 40 27 2 43 -26 11 -33
10 -50 -5 -10 -9 -24 -14 -31 -9 -8 4 -10 3 -5 -4 4 -7 3 -12 -3 -12 -6 0 -8
-7 -5 -15 4 -9 0 -15 -10 -15 -9 0 -16 -3 -15 -7 2 -15 -13 -53 -21 -53 -4 0
-43 16 -86 36 -113 52 -116 53 -152 53 -17 0 -42 3 -55 7 -21 7 -21 7 -2 15
17 6 17 8 2 8 -9 1 -31 -11 -47 -26 -28 -24 -30 -31 -30 -94 l0 -67 -38 5
c-27 4 -42 1 -51 -11 -15 -18 -7 -36 18 -36 9 0 21 -4 27 -10 5 -5 50 -18 99
-29 50 -10 106 -25 125 -34 19 -8 53 -20 75 -27 56 -18 285 -131 285 -141 0
-8 -62 -5 -108 5 -19 4 -59 5 -197 5 -11 0 -34 3 -51 7 -43 8 -78 -12 -144
-83 -59 -62 -126 -153 -122 -165 1 -5 -6 -8 -16 -9 -9 0 -12 -3 -5 -5 9 -4 7
-18 -7 -54 -17 -43 -15 -72 4 -53 11 11 90 10 105 -1 12 -9 13 -8 6 3 -6 11
-5 12 6 5 8 -4 19 -9 24 -11 6 -1 20 -4 33 -7 12 -3 28 -8 35 -13 21 -13 39
-12 65 5 48 31 96 43 231 54 151 12 379 -1 486 -28 33 -8 93 -21 133 -29 109
-21 193 -47 189 -58 -3 -9 -105 -74 -152 -96 -11 -5 -63 -46 -117 -90 -90 -76
-99 -81 -142 -81 -25 0 -46 5 -46 10 0 6 14 38 31 71 32 64 30 81 -12 94 -33
11 -15 30 29 31 87 2 48 11 -74 18 -104 6 -132 11 -152 27 -14 10 -31 19 -39
19 -16 0 -111 -48 -135 -68 -9 -8 -31 -17 -48 -21 l-31 -6 30 -43 c17 -23 29
-42 25 -42 -3 0 2 -12 10 -27 8 -16 17 -36 20 -46 5 -15 9 -16 28 -6 21 11 22
11 9 -5 -10 -12 -15 -51 -17 -129 -2 -86 -8 -125 -24 -167 -12 -30 -24 -64
-27 -75 -4 -11 -9 -22 -12 -25 -3 -3 -24 -27 -45 -54 -36 -44 -37 -48 -15 -41
13 4 39 21 57 36 38 34 43 34 83 14 33 -18 69 -69 69 -100 0 -25 -47 -71 -150
-146 -100 -74 -316 -203 -386 -232 -3 -1 -7 21 -8 50 -4 60 -24 96 -67 118
l-30 16 48 25 c78 42 173 96 173 98 0 11 -132 -19 -172 -39 -27 -14 -53 -25
-58 -25 -5 0 -14 16 -20 36 -7 19 -14 33 -17 30 -3 -3 -14 -1 -24 5 -25 13
-23 2 6 -46 l24 -39 -36 -18 c-20 -10 -40 -18 -44 -18 -9 0 -64 88 -73 117 -5
17 -1 23 21 31 l28 10 -25 3 c-41 4 -44 4 -65 17 -18 10 -19 11 -2 12 16 0 14
4 -8 23 -15 12 -36 32 -48 45 -11 12 -24 22 -29 22 -4 0 -27 -17 -50 -37 -27
-25 -43 -34 -46 -25 -8 25 -52 69 -82 84 l-30 14 65 58 c36 32 65 65 65 74 -1
48 -89 172 -122 172 -15 0 2 -41 28 -69 29 -31 31 -51 4 -51 -25 0 -26 -15 -3
-24 11 -4 22 -1 29 9 11 14 12 14 18 -1 6 -17 -9 -44 -25 -44 -4 0 -20 -12
-35 -27 l-27 -27 -28 35 c-16 19 -29 37 -29 42 0 6 42 12 64 8 5 -1 6 5 2 14
-3 9 -6 18 -6 20 0 2 -22 1 -48 -2 -29 -3 -58 -1 -70 6 -17 9 -23 7 -36 -11
-20 -28 -20 -38 -1 -38 8 0 15 -6 15 -13 0 -8 11 -20 25 -27 27 -14 33 -30 13
-30 -23 0 16 -20 40 -20 32 0 27 -10 -30 -57 -49 -41 -52 -42 -115 -39 -53 3
-65 0 -73 -15 -15 -27 -12 -37 11 -44 16 -5 18 -10 8 -21 -14 -17 -29 -18 -29
-3 0 5 5 7 10 4 6 -3 10 -1 10 4 0 13 -11 14 -25 3 -17 -11 -79 -136 -64 -126
79 49 176 104 185 104 7 0 14 7 17 15 4 8 22 21 40 29 19 8 38 19 41 25 4 6
24 11 45 11 42 0 76 -25 92 -68 11 -29 4 -38 -116 -133 -49 -39 -68 -55 -170
-142 -27 -24 -63 -53 -80 -66 -16 -12 -50 -41 -75 -65 -67 -63 -118 -99 -130
-91 -13 8 -52 -24 -44 -36 3 -5 -2 -19 -10 -31 -27 -39 -20 -55 39 -94 17 -10
48 -32 71 -49 22 -16 53 -39 68 -50 16 -11 47 -34 70 -50 22 -17 61 -43 86
-58 25 -15 63 -41 85 -57 47 -35 61 -37 70 -10 3 11 20 24 38 29 l32 9 -32 1
c-29 1 -33 4 -34 31 -1 17 -2 33 -3 38 -1 4 -7 36 -15 72 -22 113 -47 155
-153 261 -60 60 -60 69 3 69 35 0 67 -19 128 -75 42 -39 111 -132 124 -167 3
-10 11 -18 17 -18 5 0 10 -7 10 -15 0 -8 13 -42 29 -75 17 -34 35 -78 42 -98
6 -20 16 -42 21 -49 18 -22 68 -207 59 -213 -6 -3 10 -16 35 -29 37 -20 49
-22 69 -13 14 6 54 14 90 18 64 7 98 25 75 39 -8 5 -5 11 7 21 10 7 13 14 7
14 -9 0 -8 10 1 36 18 53 9 85 -23 82 -15 -2 -27 2 -27 9 0 6 -3 15 -7 19 -5
4 -8 13 -8 20 0 8 -29 52 -65 99 -36 46 -65 89 -65 94 0 5 -7 14 -15 21 -23
19 -18 27 20 40 29 10 38 9 59 -7 14 -10 26 -22 26 -28 1 -5 23 -34 50 -63
l48 -54 9 54 c8 49 7 53 -12 56 -23 4 -45 20 -45 33 0 4 12 10 28 12 24 4 23
4 -8 6 -29 2 -32 4 -15 11 l20 9 -20 0 c-11 1 -26 5 -33 9 -19 13 78 62 122
62 37 0 45 5 103 72 28 33 173 126 173 111 0 -3 6 0 14 6 7 6 32 12 54 14 31
1 38 5 30 15 -12 14 7 33 57 53 17 7 47 27 69 45 56 48 92 61 180 67 100 7
111 17 18 17 -40 0 -72 4 -72 8 0 5 9 17 20 27 17 15 26 16 82 6 50 -8 74 -8
116 3 49 13 53 13 62 -4 15 -29 13 -30 -39 -30 -28 0 -53 -4 -56 -10 -7 -11 2
-13 58 -10 54 2 79 -19 122 -102 21 -40 51 -92 66 -115 l29 -42 -56 -80 c-30
-45 -57 -81 -60 -81 -3 0 -20 7 -39 14 -27 12 -35 21 -35 40 0 14 5 28 10 31
23 14 8 33 -32 39 -24 4 -54 8 -68 10 -14 2 -35 7 -47 11 -14 5 -2 -13 37 -52
31 -32 68 -82 81 -111 13 -29 28 -52 33 -52 4 0 6 7 2 15 -3 9 0 15 8 15 9 0
12 -7 9 -20 -3 -11 -10 -20 -15 -20 -9 0 -3 -49 8 -59 2 -3 23 14 47 36 23 23
51 43 62 46 18 4 18 5 -3 6 -21 1 -21 3 17 59 22 31 68 87 103 124 35 37 62
71 60 76 -1 5 33 44 75 88 57 59 87 82 112 87 45 9 79 9 85 -1 4 -7 -43 -157
-58 -180 -4 -6 -31 -8 -72 -5 -48 4 -65 2 -60 -6 4 -6 33 -11 65 -11 48 0 58
-3 58 -17 0 -10 -3 -20 -7 -23 -7 -5 -34 -89 -101 -308 l-34 -114 -87 5 c-71
4 -90 8 -110 27 -27 25 -111 70 -132 70 -19 0 -17 -47 2 -59 8 -5 13 -12 13
-17 -1 -5 10 -9 24 -10 46 -2 39 -14 -8 -14 -40 0 -47 -3 -47 -20 0 -23 0 -23
34 -10 17 6 26 6 26 0 0 -6 15 -10 34 -10 25 0 38 -6 51 -26 21 -33 67 -155
61 -162 -3 -2 -51 -5 -107 -6 -74 -1 -103 2 -106 12 -8 23 -57 12 -81 -19 -20
-24 -21 -29 -7 -29 24 0 12 -24 -14 -28 -24 -4 -73 -48 -84 -75 -3 -9 -12 -17
-19 -17 -17 0 -48 -36 -40 -46 4 -4 1 -4 -6 0 -7 5 -11 13 -9 20 6 16 -45 15
-58 -1 -5 -7 -17 -13 -25 -15 -8 -2 -23 -11 -34 -20 -10 -10 -23 -15 -28 -12
-4 3 -8 0 -8 -6 0 -6 -4 -8 -10 -5 -5 3 -10 2 -10 -3 0 -5 -11 -15 -25 -22
-19 -10 -22 -17 -15 -31 15 -27 12 -39 -10 -39 -27 0 -25 -18 3 -23 19 -4 18
-4 -5 -6 -37 -1 -36 -26 1 -39 23 -8 32 -20 40 -49 7 -26 20 -44 41 -56 30
-18 32 -18 73 2 23 11 53 21 67 23 22 3 25 -2 40 -61 15 -56 21 -66 56 -87 21
-13 46 -21 55 -19 9 3 19 -1 22 -8 6 -16 197 -111 244 -121 17 -4 34 -14 37
-22 3 -8 11 -14 18 -14 6 0 30 -8 52 -18 118 -53 110 -51 135 -31 13 11 21 22
18 25 -12 13 78 118 92 109 5 -3 7 4 4 15 -3 11 0 20 6 20 6 0 10 -3 9 -7 -3
-16 15 -43 28 -43 8 0 14 -7 14 -16 0 -22 44 -14 48 9 2 11 11 28 20 38 10 11
16 22 14 24 -5 9 28 65 39 65 6 0 7 5 4 10 -3 6 -2 10 3 10 5 0 12 13 15 30 4
16 18 40 32 52 43 37 31 53 -47 63 -19 2 -45 8 -57 12 -20 8 -20 9 8 20 19 7
34 7 42 1 11 -8 10 -9 -3 -4 -10 3 -20 1 -23 -4 -4 -6 5 -10 18 -10 14 0 27 7
31 15 3 8 17 15 31 15 15 0 24 4 20 9 -3 6 6 7 23 2 25 -8 30 -5 50 29 16 28
18 39 9 43 -29 11 -136 -16 -207 -53 -55 -28 -83 -37 -103 -33 -28 6 -66 -8
-100 -36 -9 -8 -19 -12 -21 -10 -3 2 -5 47 -5 99 -1 52 -1 115 -1 140 -1 64
-5 73 -48 99 -37 22 -37 22 -7 17 17 -3 58 -8 93 -11 98 -7 236 -33 321 -60
59 -19 82 -32 100 -55 19 -27 25 -29 38 -18 13 10 14 26 8 88 -4 41 -8 93 -9
115 -1 38 1 40 34 46 l35 6 -38 2 c-42 1 -43 3 -51 81 -3 30 -8 75 -12 98 -3
24 -1 63 5 85 6 23 13 74 15 112 9 139 30 255 48 255 6 0 8 6 5 13 -3 8 3 31
12 53 10 21 21 54 24 73 4 18 28 77 53 130 25 53 57 122 72 153 15 31 31 57
35 57 5 1 15 8 24 16 8 8 19 12 25 9 6 -4 43 -7 82 -6 47 0 64 -2 51 -8 -11
-5 -14 -9 -7 -9 7 -1 12 -17 12 -45 0 -38 -5 -49 -45 -88 -25 -25 -45 -50 -45
-56 0 -5 -9 -29 -20 -53 -12 -28 -20 -66 -20 -105 l0 -61 -36 -1 c-48 -2 -58
-12 -12 -12 33 0 68 -23 68 -46 0 -23 51 -130 75 -157 l26 -30 68 114 c58 98
66 116 54 130 -19 23 -16 59 10 100 12 20 31 50 42 67 11 18 29 35 40 38 36
11 139 126 124 138 -2 2 -34 11 -70 21 -57 15 -74 15 -125 5 -32 -7 -67 -16
-76 -21 -14 -8 -18 -6 -18 8 0 36 15 42 105 46 l90 3 -92 2 c-88 2 -118 13
-75 29 9 4 31 16 47 29 17 12 48 31 70 42 57 30 112 82 130 126 9 20 22 39 30
42 8 4 12 11 8 18 -4 6 1 5 10 -3 13 -10 17 -10 17 -1 0 10 4 10 16 -1 13 -10
17 -10 24 2 6 9 29 15 66 16 43 1 59 6 70 21 12 18 11 20 -33 26 -25 3 -72 6
-104 6 -32 0 -61 4 -64 10 -8 14 62 113 92 128 18 10 32 11 51 4 31 -12 109
-26 102 -19 -11 11 -120 55 -115 47 4 -6 -2 -10 -11 -10 -10 0 -14 3 -11 7 4
3 -3 13 -15 21 -19 14 -23 14 -39 -6 -9 -12 -22 -22 -28 -22 -6 0 -11 -4 -11
-10 0 -5 -13 -22 -28 -38 -31 -32 -35 -30 -67 33 -11 22 -35 57 -54 77 -28 32
-31 40 -20 54 10 13 10 17 -2 25 -8 5 -24 7 -37 4 -14 -3 -34 2 -50 13 -45 31
-104 50 -167 56 -55 5 -63 9 -100 48 -23 24 -47 52 -55 63 -8 12 -31 30 -51
42 -35 20 -36 20 -32 2 3 -10 9 -19 14 -19 8 0 99 -114 99 -124 0 -4 -11 -4
-25 0 -14 3 -31 1 -39 -5 -15 -13 -16 -12 -112 124 -27 38 -49 79 -50 90 -1
11 -5 32 -9 48 -6 21 -10 25 -20 17 -10 -8 -19 -2 -36 27 -13 21 -40 61 -60
88 -33 45 -79 126 -79 140 0 3 6 5 13 5 21 0 96 -84 150 -168 23 -35 30 -40
41 -30 7 7 11 20 8 28 -3 8 -2 12 3 8 9 -9 45 9 45 22 0 6 -18 10 -39 10 -36
0 -42 4 -70 49 -17 26 -40 56 -50 65 -15 13 -18 26 -14 52 13 83 -48 179 -132
206 -35 12 -43 21 -73 83 -19 39 -37 72 -41 75 -11 9 -91 120 -97 135 -9 22
-22 18 -26 -7z m-1060 -194 c62 -18 116 -42 236 -107 75 -40 83 -49 116 -117
5 -9 21 -15 41 -15 24 0 51 -12 89 -39 30 -22 73 -46 95 -54 21 -7 50 -24 63
-38 22 -22 23 -24 6 -25 -11 0 -2 -7 21 -17 63 -27 82 -40 105 -71 20 -29 20
-30 2 -40 -23 -12 -108 17 -127 42 -32 44 -397 231 -550 282 -79 27 -77 35 10
35 43 0 76 2 74 4 -2 2 -49 6 -104 9 -62 3 -116 11 -143 22 -47 19 -46 12 -21
108 11 42 12 43 87 21z m1197 -61 c8 -20 14 -37 13 -38 -2 -1 -19 -11 -39 -23
l-35 -21 -21 42 c-28 57 -28 61 -1 69 52 14 67 9 83 -29z m9 -144 c-3 -5 -11
-9 -19 -9 -8 0 -16 4 -19 9 -3 5 5 9 19 9 14 0 22 -4 19 -9z m89 -6 c-7 -2
-21 -2 -30 0 -10 3 -4 5 12 5 17 0 24 -2 18 -5z m35 -65 c-2 -6 -10 -14 -16
-16 -7 -2 -10 2 -6 12 7 18 28 22 22 4z m-12 -137 c-12 -19 -24 -12 -19 10 4
13 9 17 15 11 6 -6 7 -15 4 -21z m-891 -46 c42 -15 103 -38 134 -52 31 -14 69
-28 85 -32 44 -10 42 -26 -6 -46 -24 -10 -65 -28 -93 -40 -45 -20 -72 -23
-255 -29 -138 -4 -221 -11 -254 -21 -27 -8 -52 -13 -54 -10 -3 3 7 18 21 33
15 16 27 33 27 39 0 6 7 16 15 23 8 7 15 21 15 33 0 11 16 37 36 59 25 28 34
46 30 61 -5 20 -2 20 108 14 83 -4 134 -13 191 -32z m776 3 c37 -10 39 -14 39
-50 0 -47 -19 -128 -30 -128 -4 0 -11 -12 -15 -27 -9 -36 -43 -83 -61 -83 -8
0 -14 -4 -14 -9 0 -20 -42 -21 -102 -3 -76 23 -324 79 -392 87 l-49 7 149 73
c171 84 282 124 353 128 28 2 54 6 58 10 9 10 20 9 64 -5z m239 -119 c44 -66
78 -124 75 -130 -4 -5 -2 -9 4 -9 6 0 21 -16 35 -36 l24 -36 -50 -66 c-28 -37
-53 -71 -58 -75 -4 -5 -40 7 -81 26 -99 46 -210 94 -233 101 -20 7 -23 3 46
86 42 52 78 144 78 202 0 31 5 40 23 48 46 18 55 12 137 -111z m188 -281 c7
-13 27 -42 46 -65 l34 -42 -26 -51 c-24 -48 -26 -50 -46 -35 -12 8 -45 31 -73
50 -32 21 -53 42 -53 53 0 20 78 111 96 112 6 0 16 -10 22 -22z m-419 -12 c7
-8 27 -18 44 -21 18 -4 51 -16 74 -26 23 -11 45 -19 48 -19 3 0 44 -24 91 -52
47 -29 100 -60 117 -69 47 -25 69 -53 65 -86 -3 -25 -9 -30 -56 -42 l-53 -14
-39 44 c-45 49 -46 51 -25 43 8 -4 15 -1 15 5 0 6 -17 11 -37 11 -21 0 -65 12
-98 26 -90 37 -162 42 -232 14 -32 -13 -65 -29 -74 -37 -9 -7 -40 -20 -70 -29
-102 -30 -190 -105 -244 -207 -36 -68 -39 -87 -18 -102 17 -12 14 -15 -30 -34
-64 -27 -83 -26 -103 5 -18 26 -33 101 -26 122 2 8 30 13 75 14 l72 2 -75 5
c-51 4 -75 10 -74 19 1 6 2 19 3 27 0 8 8 15 16 15 8 0 40 27 71 60 32 33 76
69 98 80 23 11 34 20 26 20 -9 1 3 17 28 40 92 83 248 170 305 170 19 0 40 7
47 15 16 19 44 19 59 1z m595 -47 c30 -35 31 -42 11 -59 -24 -20 -60 -3 -89
40 -14 22 -26 42 -26 45 0 3 18 5 39 5 32 0 44 -6 65 -31z m184 -34 c39 -12
67 -31 112 -74 33 -32 60 -63 60 -68 0 -6 11 -22 24 -38 13 -15 26 -40 29 -54
3 -14 17 -43 31 -64 21 -31 23 -39 11 -43 -8 -4 -15 -10 -15 -16 0 -5 5 -6 11
-2 25 15 -27 -63 -70 -105 -63 -62 -171 -106 -260 -106 -65 0 -65 0 -92 40
-63 95 -102 185 -79 185 5 0 1 9 -10 20 -11 11 -21 35 -22 53 -3 61 -4 66 -10
72 -7 8 2 84 13 106 6 13 19 15 59 11 46 -4 54 -2 81 24 16 15 29 38 29 51 0
28 23 30 98 8z m-1474 -50 c3 -9 0 -15 -9 -15 -9 0 -12 6 -9 15 4 8 7 15 9 15
2 0 5 -7 9 -15z m-87 -71 c-3 -3 -12 -4 -19 -1 -8 3 -5 6 6 6 11 1 17 -2 13
-5z m221 -60 c-16 -17 -48 -9 -48 11 0 15 53 25 59 12 2 -5 -3 -15 -11 -23z
m-191 20 c75 -9 56 -22 -31 -22 -60 0 -73 3 -69 14 6 16 23 17 100 8z m737
-20 c25 -25 36 -50 47 -110 13 -71 10 -74 -98 -74 -84 0 -153 20 -153 45 0 25
67 97 115 125 58 34 68 35 89 14z m134 -4 c2 -5 8 -8 12 -5 5 3 24 -1 42 -10
45 -21 104 -65 87 -65 -8 0 -27 -7 -44 -16 -16 -9 -48 -22 -70 -29 -22 -7 -47
-16 -56 -19 -14 -6 -17 4 -21 63 -3 39 -12 78 -19 88 -13 15 -11 16 26 10 22
-4 41 -11 43 -17z m-391 -87 c-14 -34 -26 -43 -44 -36 -9 4 -18 -6 -26 -26 -7
-19 -18 -31 -29 -31 -22 0 -22 4 -2 35 16 25 91 85 106 85 4 0 2 -12 -5 -27z
m733 -42 c0 -11 5 -23 10 -26 20 -12 9 -23 -29 -29 -21 -3 -51 -13 -67 -21
-34 -18 -94 -20 -94 -3 0 6 -7 19 -15 28 -14 16 -12 18 32 29 26 7 58 17 71
22 13 5 27 7 32 4 5 -3 11 -1 15 5 11 18 45 11 45 -9z m-1327 -72 c22 9 27 8
27 -4 0 -11 -12 -15 -46 -15 -41 0 -45 2 -34 15 9 11 15 12 20 5 5 -7 15 -8
33 -1z m497 3 c0 -15 -73 -87 -77 -76 -7 20 38 84 58 84 10 0 19 -4 19 -8z
m327 2 c-3 -3 -12 -4 -19 -1 -8 3 -5 6 6 6 11 1 17 -2 13 -5z m-676 -14 c6 0
8 -4 5 -9 -8 -12 -46 -2 -46 11 0 6 7 7 16 4 9 -3 20 -6 25 -6z m950 -9 l24
-19 -25 -11 c-14 -5 -65 -26 -115 -46 -49 -20 -95 -38 -101 -41 -14 -6 -27 41
-19 67 4 10 11 19 16 19 6 0 29 9 52 19 79 36 134 40 168 12z m-991 -25 c0 -2
-9 -2 -20 1 -11 3 -20 9 -20 15 0 5 9 4 20 -2 11 -6 20 -12 20 -14z m1280 -28
c13 -24 34 -57 47 -75 l24 -31 -30 -23 c-17 -13 -31 -26 -31 -30 0 -5 -10 -19
-23 -33 -21 -23 -30 -25 -88 -21 -71 4 -221 -22 -311 -54 -37 -12 -60 -16 -64
-10 -3 6 -4 13 -1 16 3 3 1 17 -4 31 -6 14 -12 45 -14 68 -3 24 -6 48 -7 54
-3 11 122 56 332 120 131 40 141 39 170 -12z m-606 -7 c3 -4 7 -22 8 -40 1
-17 8 -31 14 -31 15 0 28 -35 19 -50 -4 -6 -2 -16 3 -23 5 -7 15 -42 22 -79 9
-50 16 -65 26 -61 16 6 17 -11 4 -42 -8 -19 -9 -19 -9 3 -1 22 -2 22 -31 7
-27 -14 -30 -14 -40 4 -5 11 -10 31 -10 44 0 14 -7 41 -15 61 -9 20 -17 49
-19 64 -2 15 -7 48 -11 74 -4 26 -5 54 -2 62 7 17 32 22 41 7z m-104 -90 c0
-19 48 -163 74 -223 17 -40 16 -42 -31 -41 -7 1 -11 -2 -9 -6 3 -4 -17 -24
-42 -46 -26 -21 -79 -72 -119 -112 l-71 -73 -56 100 c-57 102 -64 120 -46 120
6 0 10 5 10 10 0 6 -11 10 -24 10 -18 0 -27 8 -35 32 -6 17 -10 32 -9 33 2 2
28 15 59 30 30 14 95 55 142 91 52 38 97 64 112 64 14 0 24 3 24 8 -1 4 -1 13
0 20 2 19 21 4 21 -17z m-211 -54 c-2 -1 -13 -9 -23 -17 -13 -10 -17 -10 -12
-2 5 8 -1 12 -19 12 -18 0 -24 -4 -19 -12 6 -10 4 -10 -7 -2 -8 6 -21 14 -29
17 -8 3 14 6 49 6 35 1 62 0 60 -2z m-159 -24 c29 -8 34 -11 13 -8 -17 2 -54
1 -82 -4 -28 -4 -54 -4 -59 1 -10 10 -63 13 -96 7 -10 -2 -21 1 -23 8 -6 17
188 14 247 -4z m-180 -13 c0 -5 -4 -10 -10 -10 -5 0 -10 5 -10 10 0 6 5 10 10
10 6 0 10 -4 10 -10z m-1035 -96 c87 -115 83 -104 39 -104 -22 0 -50 3 -63 7
-22 6 -23 7 -6 13 10 3 -24 4 -74 2 -61 -3 -96 -1 -104 7 -8 8 -2 11 24 12 24
1 27 3 11 6 -21 4 -18 10 40 63 35 33 68 59 73 60 6 0 33 -30 60 -66z m1039
22 c34 -12 36 -15 19 -20 -23 -7 -73 2 -73 13 0 6 11 21 14 21 1 0 19 -6 40
-14z m92 5 c-6 -9 -46 -22 -46 -15 0 3 10 9 23 14 29 11 29 11 23 1z m1089
-13 c4 -4 4 -15 1 -25 -6 -19 -66 -40 -186 -66 -30 -7 -69 -20 -85 -29 -27
-14 -142 -58 -153 -58 -2 0 -1 15 2 34 4 20 2 37 -4 41 -34 21 91 73 265 108
30 6 153 2 160 -5z m528 -50 c-24 -24 -37 -21 -27 6 3 9 16 16 27 16 l21 0
-21 -22z m-2644 -92 c13 -16 9 -20 -49 -48 -19 -9 -39 -14 -44 -11 -5 4 -6 1
-2 -5 4 -7 5 -12 2 -12 -2 0 -12 -3 -21 -7 -14 -5 -16 -2 -10 16 8 26 -9 51
-35 51 -10 0 -23 7 -30 15 -11 13 -1 15 83 15 69 0 98 -4 106 -14z m2051 5 c0
-4 -5 -21 -10 -37 -9 -24 -22 -33 -81 -52 -39 -13 -72 -22 -73 -20 -13 16 -25
73 -16 82 21 21 180 45 180 27z m-2388 -23 c22 -17 32 -19 35 -10 3 6 11 12
19 12 9 0 12 -4 9 -10 -4 -6 6 -10 22 -10 15 0 47 -13 71 -29 36 -25 40 -30
24 -36 -11 -3 -30 -15 -43 -26 -12 -11 -33 -22 -46 -25 -25 -7 -41 8 -101 86
-15 19 -31 38 -36 41 -8 6 0 29 10 29 3 0 19 -10 36 -22z m98 12 c0 -5 -4 -10
-9 -10 -6 0 -13 5 -16 10 -3 6 1 10 9 10 9 0 16 -4 16 -10z m2697 4 c-3 -3
-12 -4 -19 -1 -8 3 -5 6 6 6 11 1 17 -2 13 -5z m-2268 -49 c28 -14 51 -58 51
-97 0 -53 -24 -71 -228 -171 l-200 -99 -31 17 c-39 20 -71 70 -71 112 0 37 16
50 137 115 44 24 115 64 159 90 86 52 132 60 183 33z m-555 -61 c47 -52 56
-68 45 -75 -8 -5 -22 -9 -32 -9 -10 0 -31 -7 -47 -15 -28 -15 -31 -14 -91 27
l-62 43 54 47 c29 27 58 48 63 48 6 -1 38 -30 70 -66z m2176 53 c0 -7 9 -18
20 -25 11 -7 20 -16 20 -20 0 -10 -126 -52 -152 -52 -10 0 -18 -4 -18 -10 0
-5 -7 -10 -15 -10 -17 0 -19 27 -6 63 15 38 151 87 151 54z m185 -79 c-19 -62
-56 -211 -67 -275 l-12 -73 -63 0 c-35 0 -63 -4 -63 -10 0 -5 -10 -10 -22 -9
-22 0 -22 1 -3 9 14 6 -4 9 -55 9 -80 1 -109 13 -89 38 9 9 8 17 -1 28 -8 10
-9 15 -2 15 6 0 9 7 6 15 -3 8 -1 45 6 83 9 58 15 71 36 81 28 12 152 34 162
27 4 -2 25 0 47 4 33 7 26 8 -38 7 -42 -1 -77 1 -77 4 0 4 19 11 43 17 23 6
74 20 112 31 90 25 89 25 80 -1z m-2580 -58 c3 -5 -1 -10 -9 -10 -9 0 -16 5
-16 10 0 6 4 10 9 10 6 0 13 -4 16 -10z m-19 -166 c17 -18 39 -50 50 -71 10
-21 25 -44 32 -51 7 -8 10 -18 7 -23 -3 -5 -1 -17 4 -28 8 -14 7 -22 -3 -30
-10 -9 -17 -2 -31 32 -10 23 -19 50 -20 61 -1 10 -7 21 -12 25 -6 3 -22 25
-36 48 -14 22 -43 58 -64 79 l-38 38 40 -23 c22 -13 54 -38 71 -57z m2193 4
c-6 -34 -16 -68 -21 -75 -5 -7 -7 -17 -4 -22 8 -12 -14 -153 -25 -165 -5 -6
-9 -18 -9 -28 0 -12 -8 -18 -23 -18 -29 0 -40 9 -29 24 5 6 17 45 27 86 10 41
23 78 28 81 5 4 11 17 12 30 5 37 46 162 51 156 3 -3 0 -34 -7 -69z m-1696
-204 c32 -41 55 -79 52 -84 -3 -6 3 -10 14 -10 12 0 21 -5 21 -11 0 -7 -12 -9
-32 -5 -18 3 -50 2 -70 -3 -44 -10 -51 -5 -66 59 -8 34 -8 47 1 53 8 6 7 7 -5
4 -17 -6 -46 19 -35 30 4 3 2 12 -4 20 -9 10 -7 13 10 13 11 0 21 -4 21 -10 0
-5 10 -10 23 -10 21 1 22 1 3 15 -14 11 -15 15 -5 14 8 0 40 -34 72 -75z
m2017 10 c0 -32 -2 -35 -22 -28 -13 3 -41 16 -63 28 l-40 20 40 7 c83 13 85
12 85 -27z m-277 17 l25 -10 -16 -45 c-17 -46 -26 -53 -50 -38 -8 6 -10 22 -6
55 7 50 9 52 47 38z m120 -38 l48 -17 -7 -41 c-3 -22 -7 -41 -8 -42 -1 -1 -26
4 -55 10 -59 13 -67 26 -48 77 13 35 9 35 70 13z m-2245 -69 c2 -38 0 -54 -7
-49 -12 7 -15 105 -3 105 4 0 8 -25 10 -56z m2393 10 c14 -17 20 -50 13 -75
-3 -11 -12 -15 -30 -11 -31 6 -38 21 -30 67 7 37 25 45 47 19z m-240 -59 c73
-6 120 -17 186 -45 l68 -29 1 -69 c1 -38 4 -77 7 -88 13 -45 18 -114 8 -114
-5 0 -33 22 -63 50 -29 27 -57 50 -62 50 -4 0 -6 7 -2 15 4 10 -1 15 -14 15
-29 0 -157 126 -187 184 l-25 49 24 -8 c12 -4 39 -8 59 -10z m-1622 -44 l20
-28 -42 -13 c-23 -7 -55 -16 -71 -21 -42 -13 -50 -11 -35 9 12 15 12 16 -2 5
-9 -7 -20 -9 -24 -5 -5 4 -5 -1 -2 -10 4 -10 4 -18 2 -18 -8 0 -45 93 -39 101
3 5 43 9 89 9 81 0 84 -1 104 -29z m1461 0 c0 -5 -21 -6 -46 -3 -34 3 -45 2
-40 -7 4 -6 1 -11 -7 -11 -8 0 -17 7 -21 15 -4 12 5 15 54 15 33 0 60 -4 60
-9z m-146 -56 c3 -8 1 -15 -4 -15 -6 0 -10 7 -10 15 0 8 2 15 4 15 2 0 6 -7
10 -15z m56 -56 c0 -6 -7 -9 -15 -5 -8 3 -15 1 -15 -4 0 -5 -7 -7 -15 -4 -25
10 -17 24 15 24 17 0 30 -5 30 -11z m-112 -84 c29 -10 -2 -25 -51 -25 -45 0
-117 17 -131 31 -5 5 164 -1 182 -6z m136 -16 c-7 -12 -61 -12 -68 0 -8 13 11
18 45 13 16 -2 26 -8 23 -13z m297 -3 c23 -17 22 -17 -59 -14 -68 3 -80 1 -65
-9 9 -7 12 -13 6 -13 -7 0 -19 7 -28 17 -16 15 -15 17 7 30 30 18 108 11 139
-11z m-244 -12 c-3 -3 -12 -4 -19 -1 -8 3 -5 6 6 6 11 1 17 -2 13 -5z m78 -4
c3 -5 -1 -10 -10 -10 -9 0 -13 5 -10 10 3 6 8 10 10 10 2 0 7 -4 10 -10z
m-465 -30 c0 -5 -9 -10 -20 -10 -11 0 -20 -4 -20 -10 0 -16 30 -12 48 6 13 14
30 15 106 10 49 -4 92 -9 95 -12 7 -6 -9 -19 -49 -40 -19 -11 -49 -29 -67 -42
-17 -12 -37 -21 -44 -20 -7 2 -13 -3 -14 -10 0 -21 -27 -32 -85 -32 -33 0 -50
-4 -42 -9 7 -4 24 -6 36 -4 13 3 26 0 30 -5 8 -13 -23 -45 -38 -39 -6 2 -22 7
-36 11 -19 6 -21 5 -10 -3 13 -9 12 -11 -3 -11 -23 0 -33 26 -16 46 11 13 9
15 -12 13 -13 -1 -42 -1 -63 -1 l-39 2 24 26 c27 30 135 108 162 117 9 4 17
11 17 17 0 5 9 10 20 10 11 0 20 -4 20 -10z m695 0 c3 -5 2 -10 -4 -10 -5 0
-13 5 -16 10 -3 6 -2 10 4 10 5 0 13 -4 16 -10z m-465 -119 c0 -5 -7 -14 -15
-21 -11 -9 -15 -9 -15 -1 0 7 -5 9 -12 5 -6 -4 -25 -11 -42 -15 l-31 -7 38 -1
c20 -1 37 -4 37 -9 0 -11 -97 -127 -107 -127 -14 1 -102 60 -103 69 0 5 3 7 6
3 3 -3 24 5 45 19 21 13 43 24 48 24 5 0 14 7 22 16 29 35 129 70 129 45z
m-555 -33 c3 -13 10 -32 15 -43 12 -28 42 -137 38 -139 -2 -2 -23 -10 -48 -18
-25 -8 -53 -18 -62 -23 -21 -8 -21 -8 -39 95 -13 70 -14 108 -5 118 5 5 78 31
88 32 4 0 9 -10 13 -22z m659 -53 c4 -14 6 -56 5 -94 -1 -38 1 -73 5 -79 3 -6
-15 -13 -46 -18 -49 -7 -51 -8 -23 -15 17 -3 24 -7 18 -8 -7 0 -13 -6 -13 -12
0 -13 -25 -39 -39 -39 -6 0 -7 8 -4 17 5 13 2 15 -11 10 -10 -4 -15 -3 -11 3
7 12 -12 50 -26 50 -5 0 -25 14 -45 32 l-35 32 29 26 c15 14 41 42 56 63 32
44 93 79 117 66 9 -5 20 -20 23 -34z m-544 15 c0 -11 -48 -25 -56 -17 -11 10
4 22 30 25 14 1 26 -3 26 -8z m20 -45 c-14 -17 -62 -15 -68 3 -2 8 11 12 38
12 37 0 41 -2 30 -15z m95 -24 c4 -15 1 -27 -7 -32 -8 -6 -14 -3 -16 6 -4 17
-38 20 -47 5 -6 -9 8 -14 28 -11 4 0 7 -5 7 -13 0 -8 6 -16 12 -18 7 -3 -8 -5
-32 -5 -25 0 -37 1 -27 4 21 6 22 12 1 28 -24 17 -10 55 18 47 13 -3 19 -1 15
5 -4 7 3 10 18 9 16 -1 26 -8 30 -25z m-107 -10 c2 -1 0 -7 -5 -13 -4 -7 -6
-23 -4 -35 4 -38 -16 -26 -26 15 -9 36 -8 38 11 36 12 -1 22 -3 24 -3z m-272
-24 c4 -4 -2 -7 -14 -7 -11 0 -24 5 -27 10 -7 11 30 8 41 -3z m319 -57 c3 -5
2 -10 -4 -10 -5 0 -13 5 -16 10 -3 6 -2 10 4 10 5 0 13 -4 16 -10z m690 -40
c-3 -5 -10 -10 -16 -10 -5 0 -9 5 -9 10 0 6 7 10 16 10 8 0 12 -4 9 -10z
m-622 -7 c-7 -2 -19 -2 -25 0 -7 3 -2 5 12 5 14 0 19 -2 13 -5z m692 -11 c-3
-3 -11 0 -18 7 -9 10 -8 11 6 5 10 -3 15 -9 12 -12z m-181 -37 c-17 -13 -85
-22 -72 -10 8 8 83 33 87 29 3 -2 -4 -11 -15 -19z m-399 0 c32 -2 44 -1 35 5
-10 7 1 10 35 10 28 0 57 -5 65 -10 11 -7 6 -10 -22 -10 -26 0 -36 -4 -33 -12
4 -9 -7 -13 -35 -13 -29 0 -40 4 -40 15 0 10 -3 11 -8 4 -4 -6 -23 -14 -42
-17 -19 -3 -53 -9 -75 -14 -22 -5 -48 -7 -57 -5 -29 6 -20 31 15 42 28 9 29 9
4 6 -15 -2 -30 1 -33 6 -4 6 23 7 67 3 41 -3 96 -8 124 -10z m590 0 c6 -2 -11
-4 -37 -4 -27 -1 -48 3 -48 7 0 7 62 5 85 -3z m82 9 c-3 -3 -12 -4 -19 -1 -8
3 -5 6 6 6 11 1 17 -2 13 -5z m-47 -34 c-24 -15 -37 -11 -16 5 11 8 22 12 25
9 3 -3 -1 -9 -9 -14z m-431 -6 c2 -2 -12 -4 -33 -4 -22 0 -35 4 -31 10 5 9 52
4 64 -6z m-99 -30 c0 -2 -7 -4 -15 -4 -8 0 -15 4 -15 10 0 5 7 7 15 4 8 -4 15
-8 15 -10z m85 6 c-3 -5 -10 -10 -16 -10 -5 0 -9 5 -9 10 0 6 7 10 16 10 8 0
12 -4 9 -10z m-105 -40 c0 -5 -2 -10 -4 -10 -3 0 -8 5 -11 10 -3 6 -1 10 4 10
6 0 11 -4 11 -10z m80 0 c-8 -5 -19 -10 -25 -10 -5 0 -3 5 5 10 8 5 20 10 25
10 6 0 3 -5 -5 -10z m-41 -56 c-23 -25 -49 -32 -49 -14 0 6 10 10 23 11 21 0
21 1 -3 11 l-25 11 25 7 c42 11 54 1 29 -26z"/>
<path d="M5185 6290 c3 -5 16 -10 28 -10 18 0 19 2 7 10 -20 13 -43 13 -35 0z"/>
<path d="M4888 6143 c7 -3 16 -2 19 1 4 3 -2 6 -13 5 -11 0 -14 -3 -6 -6z"/>
<path d="M4928 6133 c7 -3 16 -2 19 1 4 3 -2 6 -13 5 -11 0 -14 -3 -6 -6z"/>
<path d="M5068 6133 c7 -3 16 -2 19 1 4 3 -2 6 -13 5 -11 0 -14 -3 -6 -6z"/>
<path d="M5118 6133 c12 -2 32 -2 45 0 12 2 2 4 -23 4 -25 0 -35 -2 -22 -4z"/>
<path d="M5961 6267 c-16 -16 -14 -34 5 -41 21 -8 34 1 34 24 0 22 -23 33 -39
17z"/>
<path d="M5905 6100 c-8 -13 3 -30 20 -30 23 0 27 18 6 30 -13 7 -22 7 -26 0z"/>
<path d="M5950 5875 c-7 -8 -20 -15 -28 -15 -13 0 -12 -4 6 -22 17 -18 24 -20
34 -10 14 14 19 62 7 62 -4 0 -12 -7 -19 -15z"/>
<path d="M5716 5672 c-2 -4 4 -8 14 -8 10 0 16 4 14 8 -3 4 -9 8 -14 8 -5 0
-11 -4 -14 -8z"/>
<path d="M5560 5630 c0 -5 5 -10 11 -10 5 0 7 5 4 10 -3 6 -8 10 -11 10 -2 0
-4 -4 -4 -10z"/>
<path d="M6830 5662 c14 -4 25 -13 26 -19 2 -30 5 -33 27 -33 36 0 54 16 41
37 -8 13 -25 18 -65 20 -33 1 -44 -1 -29 -5z"/>
<path d="M5861 5526 c4 -4 21 -11 39 -16 20 -6 30 -6 24 -1 -10 11 -72 27 -63
17z"/>
<path d="M6375 5220 c-19 -8 -19 -9 3 -9 12 -1 22 4 22 9 0 6 -1 10 -2 9 -2 0
-12 -4 -23 -9z"/>
<path d="M6288 5213 c12 -2 32 -2 45 0 12 2 2 4 -23 4 -25 0 -35 -2 -22 -4z"/>
<path d="M5398 5183 c7 -3 16 -2 19 1 4 3 -2 6 -13 5 -11 0 -14 -3 -6 -6z"/>
<path d="M6118 4983 c7 -3 16 -2 19 1 4 3 -2 6 -13 5 -11 0 -14 -3 -6 -6z"/>
<path d="M4457 4843 c-13 -12 -7 -54 8 -59 8 -4 15 -14 15 -23 0 -9 6 -5 15
13 8 15 15 36 15 46 0 23 -37 39 -53 23z"/>
<path d="M6052 4678 c-20 -20 -14 -40 11 -36 14 2 23 11 25 26 4 24 -16 30
-36 10z"/>
<path d="M4228 4203 c6 -2 18 -2 25 0 6 3 1 5 -13 5 -14 0 -19 -2 -12 -5z"/>
<path d="M4288 4203 c6 -2 18 -2 25 0 6 3 1 5 -13 5 -14 0 -19 -2 -12 -5z"/>
<path d="M4328 4173 c7 -3 16 -2 19 1 4 3 -2 6 -13 5 -11 0 -14 -3 -6 -6z"/>
<path d="M5675 3540 c3 -5 8 -10 11 -10 2 0 4 5 4 10 0 6 -5 10 -11 10 -5 0
-7 -4 -4 -10z"/>
<path d="M4793 6843 c20 -2 54 -2 75 0 20 2 3 4 -38 4 -41 0 -58 -2 -37 -4z"/>
<path d="M6293 6823 c9 -2 25 -2 35 0 9 3 1 5 -18 5 -19 0 -27 -2 -17 -5z"/>
<path d="M5133 6753 c-17 -6 -16 -28 2 -43 22 -19 48 5 34 31 -10 19 -15 21
-36 12z"/>
<path d="M4494 6538 c-28 -29 -85 -120 -80 -126 7 -7 60 25 84 51 18 19 23 34
20 62 l-3 37 -21 -24z"/>
<path d="M6268 6543 c7 -3 16 -2 19 1 4 3 -2 6 -13 5 -11 0 -14 -3 -6 -6z"/>
<path d="M4457 6378 c16 -8 42 -8 85 -1 l63 10 -85 1 c-67 0 -80 -2 -63 -10z"/>
<path d="M4475 6330 c-3 -5 1 -10 9 -10 9 0 16 5 16 10 0 6 -4 10 -9 10 -6 0
-13 -4 -16 -10z"/>
<path d="M4535 6160 c-3 -6 1 -7 9 -4 18 7 21 14 7 14 -6 0 -13 -4 -16 -10z"/>
<path d="M4330 6150 c-20 -6 -21 -8 -5 -8 11 0 29 3 40 8 25 11 -1 11 -35 0z"/>
<path d="M4292 6111 c-18 -3 -33 -9 -32 -13 0 -5 0 -12 0 -18 0 -6 23 -7 60
-3 49 5 60 3 60 -9 0 -24 34 -48 68 -48 l31 0 -25 38 c-14 20 -31 40 -38 44
-18 10 -87 15 -124 9z"/>
<path d="M4926 5909 c6 -11 54 -12 54 -1 0 4 -13 7 -30 8 -16 1 -27 -3 -24 -7z"/>
<path d="M5003 5903 c9 -2 25 -2 35 0 9 3 1 5 -18 5 -19 0 -27 -2 -17 -5z"/>
<path d="M5543 5893 c9 -2 23 -2 30 0 6 3 -1 5 -18 5 -16 0 -22 -2 -12 -5z"/>
<path d="M5713 5893 c9 -2 25 -2 35 0 9 3 1 5 -18 5 -19 0 -27 -2 -17 -5z"/>
<path d="M3940 5554 c-16 -8 -19 -14 -9 -14 8 0 24 7 35 15 24 18 7 18 -26 -1z"/>
<path d="M3888 5515 c-15 -20 -16 -24 -2 -29 16 -6 28 14 22 38 -2 10 -7 8
-20 -9z"/>
<path d="M7123 5213 c9 -2 23 -2 30 0 6 3 -1 5 -18 5 -16 0 -22 -2 -12 -5z"/>
<path d="M3947 5163 c-30 -8 -18 -47 16 -51 26 -3 28 -1 25 24 -3 29 -12 34
-41 27z"/>
<path d="M5004 5145 c-8 -34 1 -55 26 -55 28 0 48 43 30 65 -20 24 -49 18 -56
-10z"/>
<path d="M6705 5160 c-3 -5 -1 -10 4 -10 6 0 11 5 11 10 0 6 -2 10 -4 10 -3 0
-8 -4 -11 -10z"/>
<path d="M5295 4930 c-14 -44 45 -67 69 -27 9 15 7 21 -8 33 -28 20 -54 17
-61 -6z"/>
<path d="M6488 4933 c6 -2 18 -2 25 0 6 3 1 5 -13 5 -14 0 -19 -2 -12 -5z"/>
<path d="M5181 4756 c12 -13 64 -23 84 -15 17 6 15 8 -10 8 -16 1 -41 4 -55 8
-14 3 -22 3 -19 -1z"/>
<path d="M6417 4744 c3 -8 14 -14 25 -14 23 0 16 16 -11 23 -14 3 -18 1 -14
-9z"/>
<path d="M5434 4744 c-18 -8 -4 -44 17 -44 19 0 43 33 32 44 -7 7 -32 7 -49 0z"/>
<path d="M5333 4733 c9 -2 23 -2 30 0 6 3 -1 5 -18 5 -16 0 -22 -2 -12 -5z"/>
<path d="M4470 4540 c0 -5 5 -10 10 -10 6 0 10 5 10 10 0 6 -4 10 -10 10 -5 0
-10 -4 -10 -10z"/>
<path d="M5658 4503 c29 -2 74 -2 100 0 26 2 2 3 -53 3 -55 0 -76 -1 -47 -3z"/>
<path d="M5650 4450 c0 -5 7 -7 15 -4 8 4 15 8 15 10 0 2 -7 4 -15 4 -8 0 -15
-4 -15 -10z"/>
<path d="M5508 4213 c6 -2 18 -2 25 0 6 3 1 5 -13 5 -14 0 -19 -2 -12 -5z"/>
<path d="M5558 4073 c6 -2 18 -2 25 0 6 3 1 5 -13 5 -14 0 -19 -2 -12 -5z"/>
<path d="M6200 3621 c0 -5 -8 -7 -19 -4 -10 3 -22 0 -25 -6 -5 -7 2 -11 16
-11 36 0 68 11 62 21 -7 12 -34 12 -34 0z"/>
<path d="M5933 3133 c-15 -5 -17 -23 -4 -23 5 0 11 7 15 15 3 8 4 15 3 14 -1
0 -8 -3 -14 -6z"/>
<path d="M9000 2590 c0 -211 3 -257 25 -382 14 -78 25 -144 25 -146 0 -1 30
-2 68 0 l67 3 24 120 c20 102 24 160 28 383 l5 262 -121 0 -121 0 0 -240z"/>
<path d="M7548 2670 c-84 -10 -128 -20 -128 -27 0 -8 20 -132 25 -159 4 -19 9
-20 57 -13 97 14 236 10 269 -7 52 -26 59 -61 59 -274 0 -213 -7 -248 -59
-274 -33 -17 -172 -21 -269 -7 -59 8 -53 17 -72 -98 -6 -34 -9 -65 -7 -67 13
-13 141 -27 252 -27 112 -1 138 3 188 22 74 29 112 61 145 125 l27 51 0 280 0
280 -27 52 c-51 97 -142 142 -297 148 -53 2 -126 0 -163 -5z"/>
<path d="M8170 2302 c0 -429 3 -452 67 -514 66 -64 191 -91 318 -69 166 29
225 111 225 310 0 173 -52 240 -202 266 -37 6 -48 18 -28 30 24 15 6 36 -55
66 -36 17 -67 30 -68 28 -2 -2 -14 -22 -28 -44 l-24 -40 -3 173 -2 172 -100 0
-100 0 0 -378z m378 -198 c19 -13 22 -24 22 -92 0 -42 -4 -82 -8 -88 -25 -37
-124 -47 -163 -15 -21 17 -23 27 -24 102 l0 83 40 12 c56 17 107 17 133 -2z"/>
<path d="M2335 2660 c-114 -21 -195 -73 -238 -154 -21 -39 -22 -53 -22 -316 0
-263 1 -277 22 -315 48 -89 126 -136 258 -157 146 -23 300 17 373 96 70 76 74
97 70 398 l-3 266 42 7 c23 3 60 1 82 -5 72 -19 71 -11 71 -412 l0 -358 105 0
105 0 0 390 c0 365 -1 393 -19 428 -26 50 -66 86 -126 114 -42 19 -66 22 -155
21 -58 0 -139 -8 -181 -16 -68 -14 -82 -14 -125 -1 -61 19 -193 26 -259 14z
m195 -198 c56 -28 60 -44 60 -272 0 -228 -4 -244 -60 -272 -45 -23 -140 -24
-186 -2 -59 28 -64 49 -64 274 0 224 5 245 62 273 45 22 143 22 188 -1z"/>
<path d="M3340 2646 c0 -35 20 -88 44 -114 32 -36 69 -52 194 -82 168 -41 157
-22 155 -303 -3 -281 4 -267 -134 -267 l-89 0 0 145 0 145 -95 0 -95 0 0 -210
0 -209 38 -10 c123 -33 328 -39 423 -11 58 16 102 52 127 100 22 44 23 50 20
342 -3 283 -4 298 -24 325 -31 42 -86 69 -202 98 -108 27 -162 48 -162 65 0 6
-42 10 -100 10 -98 0 -100 0 -100 -24z"/>
<path d="M4142 2658 l-64 -10 7 -47 c3 -25 8 -60 11 -78 l6 -31 117 5 c144 7
175 -4 186 -66 3 -21 1 -58 -5 -81 -15 -56 -49 -70 -175 -70 l-95 0 0 -89 0
-89 126 -4 c118 -3 127 -4 145 -27 14 -17 19 -39 19 -87 0 -62 -1 -65 -32 -85
-30 -18 -46 -20 -160 -17 l-127 4 -6 -41 c-4 -22 -7 -56 -8 -75 -2 -35 -2 -35
58 -48 76 -16 260 -9 333 13 111 34 159 121 150 270 -6 90 -28 131 -90 165
l-45 25 39 28 c58 41 78 92 78 203 0 115 -23 167 -91 201 -79 41 -231 53 -377
31z"/>
<path d="M5750 2646 c0 -35 20 -88 44 -114 32 -36 69 -52 194 -82 168 -41 157
-22 155 -303 -3 -281 4 -267 -134 -267 l-89 0 0 145 0 145 -95 0 -95 0 0 -210
0 -209 38 -10 c123 -33 328 -39 423 -11 58 16 102 52 127 100 22 44 23 50 20
342 -3 283 -4 298 -24 325 -31 42 -86 69 -202 98 -108 27 -162 48 -162 65 0 6
-42 10 -100 10 -98 0 -100 0 -100 -24z"/>
<path d="M6849 2656 c-98 -22 -89 3 -89 -246 l0 -220 100 0 100 0 0 155 0 155
28 0 c15 0 38 -7 50 -16 22 -15 22 -18 22 -283 0 -338 11 -315 -157 -319 -104
-2 -122 0 -151 18 -18 11 -37 32 -42 46 -6 14 -10 144 -10 295 l0 269 -105 0
-105 0 0 -278 c0 -308 5 -342 59 -411 66 -83 190 -116 410 -109 120 4 143 7
193 30 41 19 64 38 85 69 l28 42 3 326 c2 212 -1 339 -8 363 -12 44 -66 93
-117 108 -59 17 -230 21 -294 6z"/>
<path d="M9000 1820 l0 -140 120 0 120 0 0 140 0 140 -120 0 -120 0 0 -140z"/>
</g>
</svg>
