<?xml version="1.0" encoding="utf-8"?>
<!-- Generator: Adobe Illustrator 19.0.0, SVG Export Plug-In . SVG Version: 6.00 Build 0)  -->
<svg version="1.1" id="Layer_2" xmlns="http://www.w3.org/2000/svg" xmlns:xlink="http://www.w3.org/1999/xlink" x="0px" y="0px"
	 viewBox="0 0 1500 1500" style="enable-background:new 0 0 1500 1500;" xml:space="preserve">
<style type="text/css">
	.st0{fill:#E1DC49;}
	.st1{fill:#E1494F;}
	.st2{fill:#231F20;}
	.st3{fill:#FFFFFF;}
</style>
<g id="XMLID_30_">
	<g id="XMLID_6_">
		<g id="XMLID_4_">
			<!-- თ -->
			<path id="XMLID_5_" class="st3" d="M491.1,1077.8c0,3.6-0.7,7.2-2,10.6c-1.3,3.4-3.5,6.5-6.3,9.3c-2.9,2.8-6.7,5-11.4,6.6
				c-4.7,1.6-10.4,2.5-17.1,2.5c-6.7,0-12.4-0.9-17.1-2.5c-4.7-1.7-8.5-3.9-11.4-6.6c-2.9-2.8-5-5.9-6.4-9.3c-1.3-3.5-2-7-2-10.6
				v-38.3c0-3.6,0.6-7.2,2-10.6c1.4-3.5,3.5-6.6,6.4-9.3c2.9-2.8,6.7-5,11.4-6.6c4.7-1.6,10.4-2.5,17.1-2.5c6.7,0,12.4,0.9,17.1,2.5
				c1,0.4,2,0.7,2.9,1.2c12.6-2.4,21.3-3.6,26.1-3.7c10.1-0.1,18,2.4,23.7,7.6c2.5,2.3,4.3,4.9,5.5,7.9c1.2,2.9,1.8,6,1.8,9.3v71.8
				h-21.4V1041c0-2.6-0.4-4.7-1.1-6.3c-0.7-1.7-2.1-3-4-3.9c-3.3-1.5-8.4-1.7-15.2-0.4c1,3,1.5,6.1,1.5,9.2V1077.8z M438.8,1076
				c0,3.7,1.2,6.7,3.7,8.8c2.5,2.1,6.4,3.2,11.7,3.2c5.3,0,9.2-1.1,11.7-3.2c2.5-2.1,3.7-5,3.7-8.8v-34.6c0-3.8-1.2-6.7-3.7-8.8
				c-2.5-2.1-6.4-3.2-11.7-3.2c-5.3,0-9.2,1.1-11.7,3.2c-2.5,2.1-3.7,5-3.7,8.8V1076z"/>
			<!-- თ -->
			<!-- ა -->
			<path id="XMLID_14_" class="st3" d="M543.1,1060.9H562v28.6c3.4,0.5,6.9,0.7,10.4,0.7c2.6,0,4.7-0.1,6.3-0.4c1.6-0.3,2.9-0.8,3.8-1.5
				c0.9-0.7,1.5-1.7,1.9-2.9c0.2-0.8,0.3-14.1,0.4-39.8c0-2.1-0.1-3.7-0.3-4.8c-0.2-1.2-0.8-2.3-1.7-3.1c-0.9-0.8-2.4-1.5-4.5-2.2
				c-2.1-0.7-5-1.4-8.5-2.1c-4.4-0.9-8-1.9-10.9-2.9c-3-1-5.4-2.2-7.2-3.6c-1.9-1.4-3.3-3-4.2-4.9c-1-2-1.6-4.3-2-7.1
				c-0.2-1.3-0.3-2.7-0.4-4.1h20.4c0.3,1.1,0.8,2,1.6,2.7c0.9,0.7,2.4,1.4,4.3,2c1.9,0.6,4.6,1.3,8.2,2.1c4.8,1.1,8.7,2.2,12,3.4
				c3.2,1.2,5.6,2.5,7.4,3.9c1.8,1.4,3.2,3.1,4.1,5c0.8,1.9,1.4,4.1,1.7,6.7c0.2,2.2,0.3,5.3,0.3,9.1c0,27.1-0.3,42.1-0.8,44.7
				c-0.6,2.8-1.6,5.3-3,7.4c-1.4,2.1-3.3,3.8-5.8,5.3c-2.5,1.4-5.6,2.5-9.4,3.2c-3.1,0.6-6.6,0.9-10.7,1H574h-0.8H573h-0.8
				c-2.7,0-5.4-0.1-8.2-0.4h0c-1.9-0.2-3.8-0.4-5.7-0.6c-5.2-0.7-10.3-1.8-15.2-3.2V1060.9z"/>
			<!-- ა -->
			<!-- ვ -->
			<path id="XMLID_16_" class="st3" d="M634.9,1049.9c3.3,0,6-0.2,8.1-0.5c2.1-0.4,3.8-1,5-1.9c1.2-0.8,2-2,2.5-3.4c0.5-1.4,0.8-3.1,0.7-5.1
				v-4.1c0-2-0.5-3.5-1.4-4.7c-0.9-1.1-2.4-1.9-4.3-2.3c-2-0.5-4.5-0.7-7.5-0.6c-2.2,0-4.1,0.1-5.7,0.2c-1.5,0.1-3.2,0.4-5.3,0.7
				c-2.4,0.4-4.5,0.7-6.2,1.1l-2.2-16.1c2.8-0.6,5.3-1.1,7.7-1.5c2.4-0.4,4.9-0.7,7.2-0.8c2.4-0.2,5-0.3,7.9-0.3
				c5.7,0,10.5,0.4,14.5,1.3c4,0.9,7.1,2.3,9.5,4.1c2.3,1.8,4.1,4.1,5.2,6.8c1.1,2.7,1.6,5.9,1.6,9.5v6.8c0.1,4.3-0.9,8.1-2.9,11.4
				c-2,3.3-5.2,6-9.7,7.9c2.7,0.6,5.1,1.7,7.3,3.2c2.1,1.5,3.9,3.5,5.1,6c1.2,2.5,1.9,5.4,1.9,8.6v7.4c0,3.5-0.5,6.8-1.7,9.6
				c-1.1,2.9-3,5.4-5.5,7.4s-5.9,3.6-10.2,4.7c-4.2,1.1-9.5,1.7-15.7,1.7c-2.9,0-5.6-0.1-8-0.3c-2.5-0.2-4.8-0.5-7-0.9
				c-2.4-0.5-4.8-1.2-7.1-2l2.2-15.8c0.3,0,1.8,0.3,4.6,0.8c1.3,0.2,2.6,0.4,3.8,0.6c1,0.1,2.4,0.2,4.1,0.3c1.3,0.1,3.1,0.1,5.4,0.1
				c5,0,8.7-0.6,11-1.9c2.3-1.3,3.4-3.3,3.3-6.1v-5.1c0-2.5-0.4-4.4-1.4-5.8c-0.9-1.4-2.5-2.3-4.7-2.8c-2.1-0.5-5-0.7-8.7-0.7h-14.2
				v-17.8H634.9z"/>
			<!-- ვ -->
			<!-- ა -->
			<path id="XMLID_18_" class="st3" d="M783.8,1060.9h18.9v28.6c3.4,0.5,6.9,0.7,10.4,0.7c2.6,0,4.7-0.1,6.3-0.4c1.6-0.3,2.9-0.8,3.8-1.5
				c0.9-0.7,1.5-1.7,1.9-2.9c0.2-0.8,0.3-14.1,0.4-39.8c0-2.1-0.1-3.7-0.3-4.8c-0.2-1.2-0.8-2.3-1.7-3.1c-0.9-0.8-2.4-1.5-4.5-2.2
				c-2.1-0.7-5-1.4-8.5-2.1c-4.4-0.9-8-1.9-10.9-2.9c-3-1-5.4-2.2-7.2-3.6c-1.9-1.4-3.3-3-4.2-4.9c-1-2-1.6-4.3-2-7.1
				c-0.2-1.3-0.3-2.7-0.4-4.1h20.4c0.3,1.1,0.8,2,1.6,2.7c0.9,0.7,2.4,1.4,4.3,2c1.9,0.6,4.6,1.3,8.2,2.1c4.8,1.1,8.7,2.2,12,3.4
				c3.2,1.2,5.6,2.5,7.4,3.9c1.8,1.4,3.2,3.1,4.1,5c0.8,1.9,1.4,4.1,1.7,6.7c0.2,2.2,0.3,5.3,0.3,9.1c0,27.1-0.3,42.1-0.8,44.7
				c-0.6,2.8-1.6,5.3-3,7.4c-1.4,2.1-3.3,3.8-5.8,5.3c-2.5,1.4-5.6,2.5-9.4,3.2c-3.1,0.6-6.6,0.9-10.7,1h-1.3h-0.8h-0.1h-0.8
				c-2.7,0-5.4-0.1-8.2-0.4h0c-1.9-0.2-3.8-0.4-5.7-0.6c-5.2-0.7-10.3-1.8-15.2-3.2V1060.9z"/>
			<!-- ა -->
			<!-- ტ -->
			<path id="XMLID_20_" class="st3" d="M886.7,1014.5c5.3-1.5,10.7-2.6,16.2-3.4c1.2-0.2,2.5-0.4,3.8-0.5h0.2h4c6.5,0,11.8,0.8,15.8,2.5
				s6.9,4.1,8.7,7.2c1.7,3,2.6,6.7,2.6,11.1v52.9c0,4.5-0.9,8.5-2.9,11.9c-1.9,3.4-4.9,6-9,8c-4.1,1.9-9.3,2.9-15.6,2.9h-15.2
				c-6.7,0-12.4-0.9-16.9-2.5c-4.6-1.7-8.3-3.9-11-6.6c-2.8-2.8-4.8-5.9-6-9.3c-1.2-3.4-1.9-7-1.9-10.6v-51.3h21.4v49.3
				c0,3.7,0.4,6.5,1.3,8.3c0.9,1.8,2.5,3.2,4.6,4.1c2.1,1,4.9,1.5,8.5,1.5h9.4c2.2,0,4.3-0.2,6.1-0.6c1.8-0.5,3.3-1.3,4.3-2.5
				c1.1-1.2,1.6-3,1.6-5.2v-47c0-2.1-0.7-3.7-2.1-4.9c-1.4-1.2-3.6-1.8-6.5-1.8h-1.1v31.3h-20.1V1014.5z"/>
			<!-- ტ -->
			<!-- ე -->
			<path id="XMLID_22_" class="st3" d="M993.8,1043c0-2.8-0.4-5.2-1.1-7.1c-0.8-2-2.1-3.4-4.1-4.4c-1.9-1.1-4.6-1.6-8.1-1.6
				c-2.2,0-4.7,0.1-7.6,0.3c-2.8,0.2-5.6,0.5-8.5,0.8c-3.1,0.4-6,0.8-8.5,1.2l-3-18.7c4.8-1,9.3-1.8,13.7-2.2s9-0.7,13.9-0.7
				c8,0,14.5,1.3,19.6,3.7c5.1,2.4,8.9,5.8,11.4,10.2c2.5,4.4,3.7,9.5,3.7,15.2v38.3c0,5.8-1.2,10.8-3.7,15.2
				c-2.4,4.3-6.2,7.7-11.4,10.2c-5.1,2.4-11.7,3.7-19.6,3.7c-4.7,0-9.3-0.2-13.9-0.7c-4.6-0.5-9.2-1.3-13.7-2.2l3-18.7
				c2.7,0.5,5.5,0.9,8.5,1.2s5.9,0.6,8.5,0.8c2.7,0.2,5.3,0.3,7.6,0.3c3.5,0,6.2-0.5,8.1-1.6c2-1,3.3-2.5,4.1-4.4
				c0.7-2,1.1-4.3,1.1-7.1V1043z"/>
			<!-- ე -->
			<!-- ხ -->
			<path id="XMLID_24_" class="st3" d="M1053.5,1036c3.8,1,8.6,3.4,14.3,6.9l-3.2,5.3c5.3,0,9.8,0.8,13.5,2.4c3.6,1.7,6.4,4.3,8.2,7.9
				c1.8,3.5,2.7,8.2,2.7,14v6.2c0,3.6-0.4,7.1-1.3,10.5c-0.9,3.3-2.4,6.3-4.7,8.9c-2.2,2.6-5.3,4.7-9.4,6.2
				c-4.1,1.5-9.2,2.3-15.4,2.3c-6.2,0-11.3-0.8-15.3-2.2c-4-1.5-7.1-3.5-9.3-6.1c-2.2-2.5-3.8-5.5-4.6-8.9
				c-0.9-3.3-1.3-6.9-1.3-10.8v-68.6h20.8v34.1L1053.5,1036z M1058.2,1088.9c2.5,0,4.5-0.3,6-1c1.4-0.6,2.5-1.6,3.1-2.9
				c0.6-1.3,0.9-3,0.8-5.1v-6.4c0-2-0.3-3.5-1-4.5c-0.7-1-1.5-1.8-2.6-2.1c-1.1-0.4-2.3-0.6-3.5-0.6c-2.4,0-4.6,0.2-6.7,0.7
				c-2,0.4-3.9,1.1-5.8,1.9v11c0,2.2,0.3,3.9,0.9,5.3c0.6,1.3,1.5,2.3,3,2.8C1053.7,1088.6,1055.7,1088.9,1058.2,1088.9z"/>
			<!-- ხ -->

		</g>
		<!-- ? -->
		<g id="XMLID_8_">
			<path id="XMLID_9_" class="st0" d="M726.1,1041.7c-2.1,4.8-3.8,8.8-5.1,12c-1.2,3.2-2.2,5.9-2.9,8.1c-0.6,2.2-0.9,4-0.9,5.5
				c0,1.6,0.2,2.9,0.7,4.1c0.5,1.2,1.1,2.5,2,4c1.2,2.2,2.6,3.8,4.1,4.8c1.7,1.1,3.7,1.4,6.1,1.1c2.4-0.3,5.4-1.5,8.9-3.5
				c3.1-1.7,6.3-3.9,9.8-6.5c3.3-2.4,6.6-5,9.8-7.8l13,16.1c-2.9,2.5-5.7,4.8-8.3,6.8c-2.6,2-5.2,3.9-7.9,5.7
				c-2.7,1.7-5.5,3.4-8.4,5.1c-6.3,3.6-11.9,5.9-16.8,7.1c-4.8,1.1-9,1.2-12.8,0.1c-3.6-1-6.9-2.9-9.7-5.7
				c-2.9-2.9-5.5-6.4-7.8-10.6c-1.7-3-3.1-5.6-4.1-7.8c-1.1-2.3-1.8-4.5-2.3-6.7c-0.5-2.3-0.6-4.6-0.4-6.9c0.2-2.5,0.8-5.2,1.8-8.3
				c1-3.1,2.3-6.8,4.1-11c1.7-4,3.8-9.1,6.5-15L726.1,1041.7z M700.1,992.6l13.5,23.7L693,1028l-13.5-23.7L700.1,992.6z"/>
		</g>
		<!-- ? -->
		<!-- ! -->
		<g id="XMLID_3_">
			<path id="XMLID_27_" class="st1" d="M1115.2,1071.3l-5-29.4v-47.4h24.3v47.4l-5.1,29.4H1115.2z M1110.1,1110.3v-28h24.3v28
				H1110.1z"/>
		</g>
		<!-- ! -->

	</g>
	<!-- ფაზლი -->
<!-- 	<path id="XMLID_7_" class="st2" d="M620.5,730.8c1.4,4.7,4.3,13.9,8.2,19.2c10.6,14.4,24.8,22.2,41.2,22.2c32.5,0,40.5-18,47-35.5
		c3.1-8.2,3.1-21.5-3.2-34.8c-4.3-9-10.6-18.6-23.5-24c-21.2-9-35.2,1.2-47.2-3.5c-11-5-9-12-6.5-15.2s57.2-84.5,57.2-84.5
		c4-6.5,7.5-2.5,7.5-2.5c6,4.2,76.2,55,76.2,55c25.8,15.8,20-11.5,18.2-29.8c-2.8-29.2,22.8-44,22.8-44c37-22,74.8,4,76.8,39.5
		s-29.2,48.2-35.5,51.2s-15.5,4.5-16,14.8s12,13.5,12,13.5s84,39.5,89,41.2s4.5,2.2,2.2,6.2s-62.8,107.5-62.8,107.5
		S811,955,806,962.2s-5,4-9,2s-45.5-20.5-78.2-37s-9-32.2,2.8-35s43.8-27,30.5-63.8s-53.2-37.2-75.5-22.5s-20,43.8-20,43.8
		c0,6.5,1,17.8,1,17.8c1,24.2-25.2,11-25.2,11c-8.5-4.8-49-32-49-32s-22.2-15.8-28-19.5s-2.5-7.2,0-12s17.1-37.3,25.8-56
		c0,0,3.8-6.7,10.8-21.8c3.2-7,6.3-12.5,9.2-15.3C611.4,711.6,618.9,725.6,620.5,730.8z"/> -->
	<!-- ფაზლი -->

</g>
</svg>
