<?xml version="1.0"?>
<svg xmlns="http://www.w3.org/2000/svg" xmlns:xlink="http://www.w3.org/1999/xlink" xmlns:svgjs="http://svgjs.com/svgjs" version="1.1" width="512" height="512" x="0" y="0" viewBox="0 0 444.649 444.649" style="enable-background:new 0 0 512 512" xml:space="preserve" class=""><g>
<g xmlns="http://www.w3.org/2000/svg">
	<g>
		<path d="M258.965,252.089h-93.92c-1.237,0-2.24,1.003-2.24,2.24v93.92c0,1.237,1.003,2.24,2.24,2.24h93.92    c1.237,0,2.24-1.003,2.24-2.24v-93.92C261.205,253.092,260.202,252.089,258.965,252.089z" fill="#e24f56" data-original="#000000" style="" class=""/>
	</g>
</g>
<g xmlns="http://www.w3.org/2000/svg">
	<g>
		<path d="M128.725,175.449h-16v261.2c0,4.418,3.582,8,8,8h182.64c4.418,0,8-3.582,8-8v-261.2H128.725z M275.045,348.329    c0,8.837-7.163,16-16,16h-94c-8.837,0-16-7.163-16-16l0.16-93.92c0-8.837,7.163-16,16-16h93.84c8.837,0,16,7.163,16,16V348.329z" fill="#e24f56" data-original="#000000" style="" class=""/>
	</g>
</g>
<g xmlns="http://www.w3.org/2000/svg">
	<g>
		<path d="M256.165,123.929v-36.88c0-4.418-3.582-8-8-8h-8.96v-48.64c0.119-4.417-3.365-8.093-7.782-8.212    c-0.692-0.019-1.384,0.053-2.058,0.212l-38.32,9.52c-3.689,0.87-6.261,4.211-6.16,8v39.36h-8.96c-4.418,0-8,3.582-8,8v36.88    c-40,9.76-51.6,31.36-54.24,37.92h196.64C307.685,155.369,295.925,133.689,256.165,123.929z" fill="#e24f56" data-original="#000000" style="" class=""/>
	</g>
</g>
<g xmlns="http://www.w3.org/2000/svg">
	<g>
		<path d="M323.925,44.169h-44.96c-4.418,0-8,3.582-8,8s3.582,8,8,8h44.96c4.418,0,8-3.582,8-8S328.343,44.169,323.925,44.169z" fill="#e24f56" data-original="#000000" style="" class=""/>
	</g>
</g>
<g xmlns="http://www.w3.org/2000/svg">
	<g>
		<path d="M326.405,5.049c-1.635-4.109-6.291-6.115-10.4-4.48l-40,16c-4.109,1.624-6.124,6.271-4.5,10.38    c1.209,3.06,4.169,5.068,7.46,5.06c1.013,0.003,2.018-0.188,2.96-0.56l40-16C326.034,13.815,328.039,9.158,326.405,5.049z" fill="#e24f56" data-original="#000000" style="" class=""/>
	</g>
</g>
<g xmlns="http://www.w3.org/2000/svg">
	<g>
		<path d="M321.765,88.729l-40-16c-4.109-1.635-8.765,0.371-10.4,4.48s0.371,8.765,4.48,10.4l40,16    c4.109,1.635,8.765-0.371,10.4-4.48C327.879,95.02,325.874,90.364,321.765,88.729z" fill="#e24f56" data-original="#000000" style="" class=""/>
	</g>
</g>
<g xmlns="http://www.w3.org/2000/svg">
</g>
<g xmlns="http://www.w3.org/2000/svg">
</g>
<g xmlns="http://www.w3.org/2000/svg">
</g>
<g xmlns="http://www.w3.org/2000/svg">
</g>
<g xmlns="http://www.w3.org/2000/svg">
</g>
<g xmlns="http://www.w3.org/2000/svg">
</g>
<g xmlns="http://www.w3.org/2000/svg">
</g>
<g xmlns="http://www.w3.org/2000/svg">
</g>
<g xmlns="http://www.w3.org/2000/svg">
</g>
<g xmlns="http://www.w3.org/2000/svg">
</g>
<g xmlns="http://www.w3.org/2000/svg">
</g>
<g xmlns="http://www.w3.org/2000/svg">
</g>
<g xmlns="http://www.w3.org/2000/svg">
</g>
<g xmlns="http://www.w3.org/2000/svg">
</g>
<g xmlns="http://www.w3.org/2000/svg">
</g>
</g></svg>
