<?xml version="1.0"?>
<svg xmlns="http://www.w3.org/2000/svg" xmlns:xlink="http://www.w3.org/1999/xlink" xmlns:svgjs="http://svgjs.com/svgjs" version="1.1" width="512" height="512" x="0" y="0" viewBox="0 0 358 358" style="enable-background:new 0 0 512 512" xml:space="preserve" class=""><g>
<g xmlns="http://www.w3.org/2000/svg">
	<g>
		<g>
			<rect x="54" y="97" width="142" height="72" fill="#e24f56" data-original="#000000" style="" class=""/>
			<path d="M115,76V5H0v72h114.9C114.8,77,115,76.3,115,76z" fill="#e24f56" data-original="#000000" style="" class=""/>
			<path d="M115,189.9c0-0.3-0.1-0.9-0.1-0.9H0v72h115V189.9z" fill="#e24f56" data-original="#000000" style="" class=""/>
			<path d="M277,261v-71.1c0.1-0.3,0.2-0.6,0.4-0.9H134.8c0.1,0.3,0.2,0.6,0.2,0.9V261H277z" fill="#e24f56" data-original="#000000" style="" class=""/>
			<path d="M277,76V5H135v71c0,0.3-0.1,0.7-0.2,1h142.6C277.2,76.7,277,76.4,277,76z" fill="#e24f56" data-original="#000000" style="" class=""/>
			<rect y="97" width="34" height="72" fill="#e24f56" data-original="#000000" style="" class=""/>
			<rect x="216" y="97" width="142" height="72" fill="#e24f56" data-original="#000000" style="" class=""/>
			<path d="M297,189.9V261h61v-72h-60.7C297.2,189.3,297.1,189.6,297,189.9z" fill="#e24f56" data-original="#000000" style="" class=""/>
			<rect y="281" width="34" height="72" fill="#e24f56" data-original="#000000" style="" class=""/>
			<path d="M297,5v71c0.1,0.3,0.2,0.7,0.3,1H358V5H297z" fill="#e24f56" data-original="#000000" style="" class=""/>
			<rect x="54" y="281" width="142" height="72" fill="#e24f56" data-original="#000000" style="" class=""/>
			<rect x="216" y="281" width="142" height="72" fill="#e24f56" data-original="#000000" style="" class=""/>
		</g>
	</g>
</g>
<g xmlns="http://www.w3.org/2000/svg">
</g>
<g xmlns="http://www.w3.org/2000/svg">
</g>
<g xmlns="http://www.w3.org/2000/svg">
</g>
<g xmlns="http://www.w3.org/2000/svg">
</g>
<g xmlns="http://www.w3.org/2000/svg">
</g>
<g xmlns="http://www.w3.org/2000/svg">
</g>
<g xmlns="http://www.w3.org/2000/svg">
</g>
<g xmlns="http://www.w3.org/2000/svg">
</g>
<g xmlns="http://www.w3.org/2000/svg">
</g>
<g xmlns="http://www.w3.org/2000/svg">
</g>
<g xmlns="http://www.w3.org/2000/svg">
</g>
<g xmlns="http://www.w3.org/2000/svg">
</g>
<g xmlns="http://www.w3.org/2000/svg">
</g>
<g xmlns="http://www.w3.org/2000/svg">
</g>
<g xmlns="http://www.w3.org/2000/svg">
</g>
</g></svg>
